<svg width="2272" height="1872" viewBox="0 0 2272 1872" fill="none" xmlns="http://www.w3.org/2000/svg">
<path d="M1193.1 1799.2L1127.8 1689.6L1131.3 1687.5L1194 1792.8L1305.3 1687.9L1275.5 1584.1L1275.6 1583.7L1305.5 1398.4L1276.4 1348H1162.5L1089.1 1238L1127.2 1181.9L1066.5 1076.2L931.8 1096L931.3 1092L1068.6 1071.8L1131.9 1182.1L1094 1238L1164.6 1344H1278.7L1309.6 1397.6L1279.6 1583.9L1309.8 1689.2L1308.9 1690L1193.1 1799.2Z" fill="white" fill-opacity="0.2"/>
<path d="M271.8 834.3L185.9 642L236.9 511.4L341.2 605.5L340.9 606.4L271.8 834.3ZM189.2 642L271.3 825.8L337.9 606.6L238.2 516.7L189.2 642Z" fill="white" fill-opacity="0.2"/>
<path d="M273.016 829.811L239.012 513.823L236.029 514.144L270.033 830.132L273.016 829.811Z" fill="white" fill-opacity="0.2"/>
<path d="M339.868 607.424L339.177 604.504L187.178 640.508L187.87 643.428L339.868 607.424Z" fill="white" fill-opacity="0.2"/>
<path d="M1623.5 119.2C1670.8 120.5 1718.2 121.8 1765.5 123C1769 123.1 1771.4 123.2 1774.7 122.2C1783 119.5 1791.4 116.9 1799.7 114.2C1828.8 104.9 1857.9 95.7 1887 86.4C1907.3 79.9 1927.6 73.5 1947.9 67C1949.2 66.6 1949 64.5 1947.6 64.5C1946.3 64.5 1944.9 64.5 1943.6 64.5C1942 64.5 1942 67 1943.6 67C1944.9 67 1946.3 67 1947.6 67C1947.5 66.2 1947.4 65.4 1947.3 64.5C1901.2 79.2 1855.1 93.8 1809 108.5C1798.9 111.7 1788.7 115 1778.6 118.2C1775 119.3 1772.4 120.5 1769.5 120.4C1745.1 119.7 1720.6 119.1 1696.2 118.4C1672 117.7 1647.9 117.1 1623.7 116.4C1621.9 116.7 1621.9 119.2 1623.5 119.2Z" fill="white" fill-opacity="0.2"/>
<path d="M2004.8 355.3L1862.5 271.1L1862.3 270.8L1770.3 122.8L1772.8 121.2L1864.6 268.9L2006.3 352.7L2004.8 355.3Z" fill="white" fill-opacity="0.2"/>
<path d="M376.8 1010.8L374.3 1009.2L558.9 732.3L660.4 752.6L839.7 963.8L965.8 845.6L882.2 642.6L884.9 641.4L969.3 846.4L839.4 968.2L658.7 755.4L560.2 735.7L376.8 1010.8Z" fill="white" fill-opacity="0.2"/>
<path d="M1537.6 702.2L1521.5 557.7L1521.7 557.3L1562.7 453.3L1566.4 454.7L1525.6 558.3L1541.5 701.8L1537.6 702.2Z" fill="white" fill-opacity="0.2"/>
<path d="M1228.5 746.4L1224.6 745.6L1257.4 574.4L1191.9 471.1L1195.2 468.9L1261.7 573.6L1228.5 746.4Z" fill="white" fill-opacity="0.2"/>
<path d="M1368.78 664.507L1260.76 572.485L1258.17 575.53L1366.18 667.552L1368.78 664.507Z" fill="white" fill-opacity="0.2"/>
<path d="M1726.7 527.8L1499.3 428.1L1263.7 472H1136L1024.4 527.8L1022.7 524.2L1135.1 468H1263.4L1499.8 423.9L1728.4 524.2L1726.7 527.8Z" fill="white" fill-opacity="0.2"/>
<path d="M649.3 1480.5L558.2 1402.8L514.1 1274.4L516.9 1273.4L560.8 1401L648 1475.3C652.2 1464.1 672.6 1409.4 674.1 1401.6C675.7 1392.8 695 1183.8 695.2 1181.7L698.2 1182C697.4 1190.6 678.7 1393.2 677.1 1402.1C675.5 1411.1 651.2 1475.6 650.1 1478.4L649.3 1480.5Z" fill="white" fill-opacity="0.2"/>
<path d="M754.3 1690.8L722 1638.4L730 1550.6L647.7 1479.1L649.6 1476.9L733.1 1549.4L725.1 1637.6L756.8 1689.2L754.3 1690.8Z" fill="white" fill-opacity="0.2"/>
<path d="M874.6 1603.2L834.9 1571.4L731.3 1551.5L731.8 1548.5L836.2 1568.6L836.5 1568.8L876.5 1600.8L874.6 1603.2Z" fill="white" fill-opacity="0.2"/>
<path d="M2190.1 749.5L2051.5 632L1954.6 712L2051.4 531L2190.1 749.5ZM2051.6 628L2177 734.5L2051.7 537L1964.5 700L2051.6 628Z" fill="white" fill-opacity="0.2"/>
<path d="M2176.06 485.258L2174.94 482.475L2050.93 532.439L2052.05 535.221L2176.06 485.258Z" fill="white" fill-opacity="0.2"/>
<path d="M1444.9 1306.7L1442.2 1305.3L1462 1265.7L1442 1085.5L1442.4 1085L1523.6 987.6L1601.2 1093.7L1565 1266.3L1562.1 1265.7L1597.9 1094.3L1523.5 992.4L1445.1 1086.5L1465.1 1266.3L1444.9 1306.7Z" fill="white" fill-opacity="0.2"/>
<path d="M615.8 606.5L582 514.2L582.1 513.8L599.2 390.9L602.2 391.3L585.1 513.8L618.6 605.5L615.8 606.5Z" fill="white" fill-opacity="0.2"/>
<path d="M601.2 392.7L438.8 363.4L282.5 207.1L284.6 204.9L440.3 360.6L600.2 389.5L718.5 272.9L720.6 275.1L601.2 392.7Z" fill="white" fill-opacity="0.2"/>
<path d="M1839.5 481.5C1849.2 481.5 1849.2 466.5 1839.5 466.5C1829.9 466.5 1829.9 481.5 1839.5 481.5Z" fill="white" fill-opacity="0.2"/>
<path d="M1564.5 464C1577.4 464 1577.4 444 1564.5 444C1551.7 444 1551.7 464 1564.5 464Z" fill="white" fill-opacity="0.2"/>
<path d="M1727.5 536C1740.4 536 1740.4 516 1727.5 516C1714.7 516 1714.7 536 1727.5 536Z" fill="white" fill-opacity="0.2"/>
<path d="M1539.5 712C1552.4 712 1552.4 692 1539.5 692C1526.7 692 1526.7 712 1539.5 712Z" fill="white" fill-opacity="0.2"/>
<path d="M1523.5 568C1536.4 568 1536.4 548 1523.5 548C1510.7 548 1510.7 568 1523.5 568Z" fill="white" fill-opacity="0.2"/>
<path d="M1499.5 436C1512.4 436 1512.4 416 1499.5 416C1486.7 416 1486.7 436 1499.5 436Z" fill="white" fill-opacity="0.2"/>
<path d="M1193.5 480C1206.4 480 1206.4 460 1193.5 460C1180.7 460 1180.7 480 1193.5 480Z" fill="white" fill-opacity="0.2"/>
<path d="M1259.5 480C1272.4 480 1272.4 460 1259.5 460C1246.7 460 1246.7 480 1259.5 480Z" fill="white" fill-opacity="0.2"/>
<path d="M1226.5 756C1239.4 756 1239.4 736 1226.5 736C1213.7 736 1213.7 756 1226.5 756Z" fill="white" fill-opacity="0.2"/>
<path d="M1367.5 676C1380.4 676 1380.4 656 1367.5 656C1354.7 656 1354.7 676 1367.5 676Z" fill="white" fill-opacity="0.2"/>
<path d="M1023.5 536C1036.4 536 1036.4 516 1023.5 516C1010.7 516 1010.7 536 1023.5 536Z" fill="white" fill-opacity="0.2"/>
<path d="M1023.5 533.5C1033.2 533.5 1033.2 518.5 1023.5 518.5C1013.9 518.5 1013.9 533.5 1023.5 533.5Z" fill="white" fill-opacity="0.2"/>
<path d="M855.5 289.5C865.2 289.5 865.2 274.5 855.5 274.5C845.9 274.5 845.9 289.5 855.5 289.5Z" fill="white" fill-opacity="0.2"/>
<path d="M583.5 524C596.4 524 596.4 504 583.5 504C570.7 504 570.7 524 583.5 524Z" fill="white" fill-opacity="0.2"/>
<path d="M559.5 744C572.4 744 572.4 724 559.5 724C546.7 724 546.7 744 559.5 744Z" fill="white" fill-opacity="0.2"/>
<path d="M667.5 905.5C677.2 905.5 677.2 890.5 667.5 890.5C657.9 890.5 657.9 905.5 667.5 905.5Z" fill="white" fill-opacity="0.2"/>
<path d="M1411.5 853.5C1421.2 853.5 1421.2 838.5 1411.5 838.5C1401.9 838.5 1401.9 853.5 1411.5 853.5Z" fill="white" fill-opacity="0.2"/>
<path d="M1463.5 1276C1476.4 1276 1476.4 1256 1463.5 1256C1450.7 1256 1450.7 1276 1463.5 1276Z" fill="white" fill-opacity="0.2"/>
<path d="M1035.5 1293.5C1045.2 1293.5 1045.2 1278.5 1035.5 1278.5C1025.9 1278.5 1025.9 1293.5 1035.5 1293.5Z" fill="white" fill-opacity="0.2"/>
<path d="M491.5 1189.5C501.2 1189.5 501.2 1174.5 491.5 1174.5C481.9 1174.5 481.9 1189.5 491.5 1189.5Z" fill="white" fill-opacity="0.2"/>
<path d="M99.5 953.5C109.2 953.5 109.2 938.5 99.5 938.5C89.9 938.5 89.9 953.5 99.5 953.5Z" fill="white" fill-opacity="0.2"/>
<path d="M223.1 489.3C232.8 489.3 232.8 474.3 223.1 474.3C213.5 474.3 213.4 489.3 223.1 489.3Z" fill="white" fill-opacity="0.2"/>
<path d="M699.5 137.5C709.2 137.5 709.2 122.5 699.5 122.5C689.9 122.5 689.9 137.5 699.5 137.5Z" fill="white" fill-opacity="0.2"/>
<path d="M1291.5 269.5C1301.2 269.5 1301.2 254.5 1291.5 254.5C1281.9 254.5 1281.9 269.5 1291.5 269.5Z" fill="white" fill-opacity="0.2"/>
<path d="M1271.5 557.5C1281.2 557.5 1281.2 542.5 1271.5 542.5C1261.9 542.5 1261.9 557.5 1271.5 557.5Z" fill="white" fill-opacity="0.2"/>
<path d="M1211.5 813.5C1221.2 813.5 1221.2 798.5 1211.5 798.5C1201.9 798.5 1201.9 813.5 1211.5 813.5Z" fill="white" fill-opacity="0.2"/>
<path d="M1915.5 637.5C1925.2 637.5 1925.2 622.5 1915.5 622.5C1905.9 622.5 1905.9 637.5 1915.5 637.5Z" fill="white" fill-opacity="0.2"/>
<path d="M1927.5 197.5C1937.2 197.5 1937.2 182.5 1927.5 182.5C1917.9 182.5 1917.9 197.5 1927.5 197.5Z" fill="white" fill-opacity="0.2"/>
<path d="M1651.5 341.5C1661.2 341.5 1661.2 326.5 1651.5 326.5C1641.9 326.5 1641.9 341.5 1651.5 341.5Z" fill="white" fill-opacity="0.2"/>
<path d="M1543.5 433.5C1553.2 433.5 1553.2 418.5 1543.5 418.5C1533.9 418.5 1533.9 433.5 1543.5 433.5Z" fill="white" fill-opacity="0.2"/>
<path d="M1139.5 337.5C1149.2 337.5 1149.2 322.5 1139.5 322.5C1129.9 322.5 1129.9 337.5 1139.5 337.5Z" fill="white" fill-opacity="0.2"/>
<path d="M931.5 361.5C941.2 361.5 941.2 346.5 931.5 346.5C921.9 346.5 921.9 361.5 931.5 361.5Z" fill="white" fill-opacity="0.2"/>
<path d="M671.5 565.5C681.2 565.5 681.2 550.5 671.5 550.5C661.9 550.5 661.9 565.5 671.5 565.5Z" fill="white" fill-opacity="0.2"/>
<path d="M443.5 285.5C453.2 285.5 453.2 270.5 443.5 270.5C433.9 270.5 433.9 285.5 443.5 285.5Z" fill="white" fill-opacity="0.2"/>
<path d="M339.5 293.5C349.2 293.5 349.2 278.5 339.5 278.5C329.9 278.5 329.9 293.5 339.5 293.5Z" fill="white" fill-opacity="0.2"/>
<path d="M543.5 349.5C553.2 349.5 553.2 334.5 543.5 334.5C533.9 334.5 533.9 349.5 543.5 349.5Z" fill="white" fill-opacity="0.2"/>
<path d="M719.5 286.5C735.6 286.5 735.6 261.5 719.5 261.5C703.5 261.5 703.4 286.5 719.5 286.5Z" fill="white" fill-opacity="0.2"/>
<path d="M600.7 401.1C613.6 401.1 613.6 381.1 600.7 381.1C587.8 381.1 587.8 401.1 600.7 401.1Z" fill="white" fill-opacity="0.2"/>
<path d="M439.5 372C452.4 372 452.4 352 439.5 352C426.7 352 426.7 372 439.5 372Z" fill="white" fill-opacity="0.2"/>
<path d="M867.5 457.5C877.2 457.5 877.2 442.5 867.5 442.5C857.9 442.5 857.9 457.5 867.5 457.5Z" fill="white" fill-opacity="0.2"/>
<path d="M887.5 753.5C897.2 753.5 897.2 738.5 887.5 738.5C877.9 738.5 877.9 753.5 887.5 753.5Z" fill="white" fill-opacity="0.2"/>
<path d="M863.5 931C869.9 931 869.9 921 863.5 921C857.1 921 857.1 931 863.5 931Z" fill="white" fill-opacity="0.2"/>
<path d="M1135.5 275C1141.9 275 1141.9 265 1135.5 265C1129.1 265 1129.1 275 1135.5 275Z" fill="white" fill-opacity="0.2"/>
<path d="M1487.5 199C1493.9 199 1493.9 189 1487.5 189C1481.1 189 1481.1 199 1487.5 199Z" fill="white" fill-opacity="0.2"/>
<path d="M1735.5 259C1741.9 259 1741.9 249 1735.5 249C1729.1 249 1729.1 259 1735.5 259Z" fill="white" fill-opacity="0.2"/>
<path d="M1827.5 815C1833.9 815 1833.9 805 1827.5 805C1821.1 805 1821.1 815 1827.5 815Z" fill="white" fill-opacity="0.2"/>
<path d="M2079.5 1127C2085.9 1127 2085.9 1117 2079.5 1117C2073.1 1117 2073.1 1127 2079.5 1127Z" fill="white" fill-opacity="0.2"/>
<path d="M1879.5 1291C1885.9 1291 1885.9 1281 1879.5 1281C1873.1 1281 1873.1 1291 1879.5 1291Z" fill="white" fill-opacity="0.2"/>
<path d="M1467.5 1475C1473.9 1475 1473.9 1465 1467.5 1465C1461.1 1465 1461.1 1475 1467.5 1475Z" fill="white" fill-opacity="0.2"/>
<path d="M1291.5 1567C1297.9 1567 1297.9 1557 1291.5 1557C1285.1 1557 1285.1 1567 1291.5 1567Z" fill="white" fill-opacity="0.2"/>
<path d="M591.5 1547C597.9 1547 597.9 1537 591.5 1537C585.1 1537 585.1 1547 591.5 1547Z" fill="white" fill-opacity="0.2"/>
<path d="M731.5 1359C737.9 1359 737.9 1349 731.5 1349C725.1 1349 725.1 1359 731.5 1359Z" fill="white" fill-opacity="0.2"/>
<path d="M427.5 707C433.9 707 433.9 697 427.5 697C421.1 697 421.1 707 427.5 707Z" fill="white" fill-opacity="0.2"/>
<path d="M335.5 1059C341.9 1059 341.9 1049 335.5 1049C329.1 1049 329.1 1059 335.5 1059Z" fill="white" fill-opacity="0.2"/>
<path d="M147.5 1351C153.9 1351 153.9 1341 147.5 1341C141.1 1341 141.1 1351 147.5 1351Z" fill="white" fill-opacity="0.2"/>
<path d="M59.5 595C65.9 595 65.9 585 59.5 585C53.1 585 53.1 595 59.5 595Z" fill="white" fill-opacity="0.2"/>
<path d="M135.5 203C141.9 203 141.9 193 135.5 193C129.1 193 129.1 203 135.5 203Z" fill="white" fill-opacity="0.2"/>
<path d="M359.5 123C365.9 123 365.9 113 359.5 113C353.1 113 353.1 123 359.5 123Z" fill="white" fill-opacity="0.2"/>
<path d="M1275.5 123C1281.9 123 1281.9 113 1275.5 113C1269.1 113 1269.1 123 1275.5 123Z" fill="white" fill-opacity="0.2"/>
<path d="M907.5 95C913.9 95 913.9 85 907.5 85C901.1 85 901.1 95 907.5 95Z" fill="white" fill-opacity="0.2"/>
<path d="M1675.5 747C1681.9 747 1681.9 737 1675.5 737C1669.1 737 1669.1 747 1675.5 747Z" fill="white" fill-opacity="0.2"/>
<path d="M1599.5 1104C1612.4 1104 1612.4 1084 1599.5 1084C1586.7 1084 1586.7 1104 1599.5 1104Z" fill="white" fill-opacity="0.2"/>
<path d="M1327.5 1099C1333.9 1099 1333.9 1089 1327.5 1089C1321.1 1089 1321.1 1099 1327.5 1099Z" fill="white" fill-opacity="0.2"/>
<path d="M1087.5 951C1093.9 951 1093.9 941 1087.5 941C1081.1 941 1081.1 951 1087.5 951Z" fill="white" fill-opacity="0.2"/>
<path d="M1031.5 771C1037.9 771 1037.9 761 1031.5 761C1025.1 761 1025.1 771 1031.5 771Z" fill="white" fill-opacity="0.2"/>
<path d="M1031.5 707C1037.9 707 1037.9 697 1031.5 697C1025.1 697 1025.1 707 1031.5 707Z" fill="white" fill-opacity="0.2"/>
<path d="M603.5 1111C609.9 1111 609.9 1101 603.5 1101C597.1 1101 597.1 1111 603.5 1111Z" fill="white" fill-opacity="0.2"/>
<path d="M271.5 835C277.9 835 277.9 825 271.5 825C265.1 825 265.1 835 271.5 835Z" fill="white" fill-opacity="0.2"/>
<path d="M487.5 859C493.9 859 493.9 849 487.5 849C481.1 849 481.1 859 487.5 859Z" fill="white" fill-opacity="0.2"/>
<path d="M827.5 799C833.9 799 833.9 789 827.5 789C821.1 789 821.1 799 827.5 799Z" fill="white" fill-opacity="0.2"/>
<path d="M939.5 635C945.9 635 945.9 625 939.5 625C933.1 625 933.1 635 939.5 635Z" fill="white" fill-opacity="0.2"/>
<path d="M1347.5 711C1353.9 711 1353.9 701 1347.5 701C1341.1 701 1341.1 711 1347.5 711Z" fill="white" fill-opacity="0.2"/>
<path d="M1499.5 731C1505.9 731 1505.9 721 1499.5 721C1493.1 721 1493.1 731 1499.5 731Z" fill="white" fill-opacity="0.2"/>
<path d="M1655.5 979C1661.9 979 1661.9 969 1655.5 969C1649.1 969 1649.1 979 1655.5 979Z" fill="white" fill-opacity="0.2"/>
<path d="M1711.5 1047C1717.9 1047 1717.9 1037 1711.5 1037C1705.1 1037 1705.1 1047 1711.5 1047Z" fill="white" fill-opacity="0.2"/>
<path d="M1655.5 1507C1661.9 1507 1661.9 1497 1655.5 1497C1649.1 1497 1649.1 1507 1655.5 1507Z" fill="white" fill-opacity="0.2"/>
<path d="M1631.5 1715C1637.9 1715 1637.9 1705 1631.5 1705C1625.1 1705 1625.1 1715 1631.5 1715Z" fill="white" fill-opacity="0.2"/>
<path d="M1371.5 1787C1377.9 1787 1377.9 1777 1371.5 1777C1365.1 1777 1365.1 1787 1371.5 1787Z" fill="white" fill-opacity="0.2"/>
<path d="M1011.5 1763C1017.9 1763 1017.9 1753 1011.5 1753C1005.1 1753 1005.1 1763 1011.5 1763Z" fill="white" fill-opacity="0.2"/>
<path d="M723.5 1643C729.9 1643 729.9 1633 723.5 1633C717.1 1633 717.1 1643 723.5 1643Z" fill="white" fill-opacity="0.2"/>
<path d="M307.5 1699C313.9 1699 313.9 1689 307.5 1689C301.1 1689 301.1 1699 307.5 1699Z" fill="white" fill-opacity="0.2"/>
<path d="M255.5 1575C261.9 1575 261.9 1565 255.5 1565C249.1 1565 249.1 1575 255.5 1575Z" fill="white" fill-opacity="0.2"/>
<path d="M559.5 1407C565.9 1407 565.9 1397 559.5 1397C553.1 1397 553.1 1407 559.5 1407Z" fill="white" fill-opacity="0.2"/>
<path d="M683.5 1267C689.9 1267 689.9 1257 683.5 1257C677.1 1257 677.1 1267 683.5 1267Z" fill="white" fill-opacity="0.2"/>
<path d="M839.5 1203C845.9 1203 845.9 1193 839.5 1193C833.1 1193 833.1 1203 839.5 1203Z" fill="white" fill-opacity="0.2"/>
<path d="M931.5 1415C937.9 1415 937.9 1405 931.5 1405C925.1 1405 925.1 1415 931.5 1415Z" fill="white" fill-opacity="0.2"/>
<path d="M991.5 1555C997.9 1555 997.9 1545 991.5 1545C985.1 1545 985.1 1555 991.5 1555Z" fill="white" fill-opacity="0.2"/>
<path d="M1247.5 1275C1253.9 1275 1253.9 1265 1247.5 1265C1241.1 1265 1241.1 1275 1247.5 1275Z" fill="white" fill-opacity="0.2"/>
<path d="M1495.5 1091C1501.9 1091 1501.9 1081 1495.5 1081C1489.1 1081 1489.1 1091 1495.5 1091Z" fill="white" fill-opacity="0.2"/>
<path d="M2003.5 867C2009.9 867 2009.9 857 2003.5 857C1997.1 857 1997.1 867 2003.5 867Z" fill="white" fill-opacity="0.2"/>
<path d="M2063.5 943C2069.9 943 2069.9 933 2063.5 933C2057.1 933 2057.1 943 2063.5 943Z" fill="white" fill-opacity="0.2"/>
<path d="M2123.5 719C2129.9 719 2129.9 709 2123.5 709C2117.1 709 2117.1 719 2123.5 719Z" fill="white" fill-opacity="0.2"/>
<path d="M2207.5 179C2213.9 179 2213.9 169 2207.5 169C2201.1 169 2201.1 179 2207.5 179Z" fill="white" fill-opacity="0.2"/>
<path d="M2175.5 431C2181.9 431 2181.9 421 2175.5 421C2169.1 421 2169.1 431 2175.5 431Z" fill="white" fill-opacity="0.2"/>
<path d="M2091.5 439C2097.9 439 2097.9 429 2091.5 429C2085.1 429 2085.1 439 2091.5 439Z" fill="white" fill-opacity="0.2"/>
<path d="M2079.5 271C2085.9 271 2085.9 261 2079.5 261C2073.1 261 2073.1 271 2079.5 271Z" fill="white" fill-opacity="0.2"/>
<path d="M2183.5 752C2196.4 752 2196.4 732 2183.5 732C2170.7 732 2170.7 752 2183.5 752Z" fill="white" fill-opacity="0.2"/>
<path d="M2191.5 1127C2197.9 1127 2197.9 1117 2191.5 1117C2185.1 1117 2185.1 1127 2191.5 1127Z" fill="white" fill-opacity="0.2"/>
<path d="M2143.5 1533.5C2153.2 1533.5 2153.2 1518.5 2143.5 1518.5C2133.9 1518.5 2133.9 1533.5 2143.5 1533.5Z" fill="white" fill-opacity="0.2"/>
<path d="M2043.5 1665.5C2053.2 1665.5 2053.2 1650.5 2043.5 1650.5C2033.9 1650.5 2033.9 1665.5 2043.5 1665.5Z" fill="white" fill-opacity="0.2"/>
<path d="M1963.5 1745.5C1973.2 1745.5 1973.2 1730.5 1963.5 1730.5C1953.9 1730.5 1953.9 1745.5 1963.5 1745.5Z" fill="white" fill-opacity="0.2"/>
<path d="M1867.5 1481.5C1877.2 1481.5 1877.2 1466.5 1867.5 1466.5C1857.9 1466.5 1857.9 1481.5 1867.5 1481.5Z" fill="white" fill-opacity="0.2"/>
<path d="M1715.5 1301.5C1725.2 1301.5 1725.2 1286.5 1715.5 1286.5C1705.9 1286.5 1705.9 1301.5 1715.5 1301.5Z" fill="white" fill-opacity="0.2"/>
<path d="M1939.5 1101.5C1949.2 1101.5 1949.2 1086.5 1939.5 1086.5C1929.9 1086.5 1929.9 1101.5 1939.5 1101.5Z" fill="white" fill-opacity="0.2"/>
<path d="M1067.5 1081.5C1077.2 1081.5 1077.2 1066.5 1067.5 1066.5C1057.9 1066.5 1057.9 1081.5 1067.5 1081.5Z" fill="white" fill-opacity="0.2"/>
<path d="M1299.5 845.5C1309.2 845.5 1309.2 830.5 1299.5 830.5C1289.9 830.5 1289.9 845.5 1299.5 845.5Z" fill="white" fill-opacity="0.2"/>
<path d="M1331.5 369.5C1341.2 369.5 1341.2 354.5 1331.5 354.5C1321.9 354.5 1321.9 369.5 1331.5 369.5Z" fill="white" fill-opacity="0.2"/>
<path d="M1475.5 289.5C1485.2 289.5 1485.2 274.5 1475.5 274.5C1465.9 274.5 1465.9 289.5 1475.5 289.5Z" fill="white" fill-opacity="0.2"/>
<path d="M1771.5 129.5C1781.2 129.5 1781.2 114.5 1771.5 114.5C1761.9 114.5 1761.9 129.5 1771.5 129.5Z" fill="white" fill-opacity="0.2"/>
<path d="M419.5 585.5C429.2 585.5 429.2 570.5 419.5 570.5C409.9 570.5 409.9 585.5 419.5 585.5Z" fill="white" fill-opacity="0.2"/>
<path d="M151.5 681.5C161.2 681.5 161.2 666.5 151.5 666.5C141.9 666.5 141.9 681.5 151.5 681.5Z" fill="white" fill-opacity="0.2"/>
<path d="M263.5 1209.5C273.2 1209.5 273.2 1194.5 263.5 1194.5C253.9 1194.5 253.9 1209.5 263.5 1209.5Z" fill="white" fill-opacity="0.2"/>
<path d="M375.5 1020C388.4 1020 388.4 1000 375.5 1000C362.7 1000 362.7 1020 375.5 1020Z" fill="white" fill-opacity="0.2"/>
<path d="M795.5 1141.5C805.2 1141.5 805.2 1126.5 795.5 1126.5C785.9 1126.5 785.9 1141.5 795.5 1141.5Z" fill="white" fill-opacity="0.2"/>
<path d="M839.5 976C852.4 976 852.4 956 839.5 956C826.7 956 826.7 976 839.5 976Z" fill="white" fill-opacity="0.2"/>
<path d="M967.5 856C980.4 856 980.4 836 967.5 836C954.7 836 954.7 856 967.5 856Z" fill="white" fill-opacity="0.2"/>
<path d="M1335.5 861.5C1345.2 861.5 1345.2 846.5 1335.5 846.5C1325.9 846.5 1325.9 861.5 1335.5 861.5Z" fill="white" fill-opacity="0.2"/>
<path d="M1523.5 1000C1536.4 1000 1536.4 980 1523.5 980C1510.7 980 1510.7 1000 1523.5 1000Z" fill="white" fill-opacity="0.2"/>
<path d="M1335.5 1181.5C1345.2 1181.5 1345.2 1166.5 1335.5 1166.5C1325.9 1166.5 1325.9 1181.5 1335.5 1181.5Z" fill="white" fill-opacity="0.2"/>
<path d="M1143.5 1449.5C1153.2 1449.5 1153.2 1434.5 1143.5 1434.5C1133.9 1434.5 1133.9 1449.5 1143.5 1449.5Z" fill="white" fill-opacity="0.2"/>
<path d="M1197.5 1722.5C1207.2 1722.5 1207.2 1707.5 1197.5 1707.5C1187.9 1707.5 1187.9 1722.5 1197.5 1722.5Z" fill="white" fill-opacity="0.2"/>
<path d="M1132.5 1698.6C1145.4 1698.6 1145.4 1678.6 1132.5 1678.6C1119.7 1678.6 1119.7 1698.6 1132.5 1698.6Z" fill="white" fill-opacity="0.2"/>
<path d="M1193.5 1806C1206.4 1806 1206.4 1786 1193.5 1786C1180.7 1786 1180.7 1806 1193.5 1806Z" fill="white" fill-opacity="0.2"/>
<path d="M1307.5 1696C1320.4 1696 1320.4 1676 1307.5 1676C1294.7 1676 1294.7 1696 1307.5 1696Z" fill="white" fill-opacity="0.2"/>
<path d="M1277.5 1594C1290.4 1594 1290.4 1574 1277.5 1574C1264.7 1574 1264.7 1594 1277.5 1594Z" fill="white" fill-opacity="0.2"/>
<path d="M1307.5 1408C1320.4 1408 1320.4 1388 1307.5 1388C1294.7 1388 1294.7 1408 1307.5 1408Z" fill="white" fill-opacity="0.2"/>
<path d="M1277.5 1356C1290.4 1356 1290.4 1336 1277.5 1336C1264.7 1336 1264.7 1356 1277.5 1356Z" fill="white" fill-opacity="0.2"/>
<path d="M1163.5 1356C1176.4 1356 1176.4 1336 1163.5 1336C1150.7 1336 1150.7 1356 1163.5 1356Z" fill="white" fill-opacity="0.2"/>
<path d="M1091.5 1248C1104.4 1248 1104.4 1228 1091.5 1228C1078.7 1228 1078.7 1248 1091.5 1248Z" fill="white" fill-opacity="0.2"/>
<path d="M1129.5 1192C1142.4 1192 1142.4 1172 1129.5 1172C1116.7 1172 1116.7 1192 1129.5 1192Z" fill="white" fill-opacity="0.2"/>
<path d="M931.5 1104C944.4 1104 944.4 1084 931.5 1084C918.7 1084 918.7 1104 931.5 1104Z" fill="white" fill-opacity="0.2"/>
<path d="M1163.5 1785.5C1173.2 1785.5 1173.2 1770.5 1163.5 1770.5C1153.9 1770.5 1153.9 1785.5 1163.5 1785.5Z" fill="white" fill-opacity="0.2"/>
<path d="M719.5 1817.5C729.2 1817.5 729.2 1802.5 719.5 1802.5C709.9 1802.5 709.9 1817.5 719.5 1817.5Z" fill="white" fill-opacity="0.2"/>
<path d="M487.5 1781.5C497.2 1781.5 497.2 1766.5 487.5 1766.5C477.9 1766.5 477.9 1781.5 487.5 1781.5Z" fill="white" fill-opacity="0.2"/>
<path d="M411.5 1633.5C421.2 1633.5 421.2 1618.5 411.5 1618.5C401.9 1618.5 401.9 1633.5 411.5 1633.5Z" fill="white" fill-opacity="0.2"/>
<path d="M371.5 1529.5C381.2 1529.5 381.2 1514.5 371.5 1514.5C361.9 1514.5 361.9 1529.5 371.5 1529.5Z" fill="white" fill-opacity="0.2"/>
<path d="M147.5 1601.5C157.2 1601.5 157.2 1586.5 147.5 1586.5C137.9 1586.5 137.9 1601.5 147.5 1601.5Z" fill="white" fill-opacity="0.2"/>
<path d="M119.5 1777.5C129.2 1777.5 129.2 1762.5 119.5 1762.5C109.9 1762.5 109.9 1777.5 119.5 1777.5Z" fill="white" fill-opacity="0.2"/>
<path d="M1679.5 1101.5C1689.2 1101.5 1689.2 1086.5 1679.5 1086.5C1669.9 1086.5 1669.9 1101.5 1679.5 1101.5Z" fill="white" fill-opacity="0.2"/>
<path d="M1915.5 901.5C1925.2 901.5 1925.2 886.5 1915.5 886.5C1905.9 886.5 1905.9 901.5 1915.5 901.5Z" fill="white" fill-opacity="0.2"/>
<path d="M1959.5 716C1972.4 716 1972.4 696 1959.5 696C1946.7 696 1946.7 716 1959.5 716Z" fill="white" fill-opacity="0.2"/>
<path d="M2051.5 640C2064.4 640 2064.4 620 2051.5 620C2038.7 620 2038.7 640 2051.5 640Z" fill="white" fill-opacity="0.2"/>
<path d="M2175.5 494C2188.4 494 2188.4 474 2175.5 474C2162.7 474 2162.7 494 2175.5 494Z" fill="white" fill-opacity="0.2"/>
<path d="M2051.5 544C2064.4 544 2064.4 524 2051.5 524C2038.7 524 2038.7 544 2051.5 544Z" fill="white" fill-opacity="0.2"/>
<path d="M2191.5 345.5C2201.2 345.5 2201.2 330.5 2191.5 330.5C2181.9 330.5 2181.9 345.5 2191.5 345.5Z" fill="white" fill-opacity="0.2"/>
<path d="M2191.5 285.5C2201.2 285.5 2201.2 270.5 2191.5 270.5C2181.9 270.5 2181.9 285.5 2191.5 285.5Z" fill="white" fill-opacity="0.2"/>
<path d="M2119.5 109.5C2129.2 109.5 2129.2 94.5 2119.5 94.5C2109.9 94.5 2109.9 109.5 2119.5 109.5Z" fill="white" fill-opacity="0.2"/>
<path d="M1623.5 128C1636.4 128 1636.4 108 1623.5 108C1610.7 108 1610.7 128 1623.5 128Z" fill="white" fill-opacity="0.2"/>
<path d="M1944.2 76C1957.1 76 1957.1 56 1944.2 56C1931.3 56 1931.3 76 1944.2 76Z" fill="white" fill-opacity="0.2"/>
<path d="M1862.9 278.7C1875.8 278.7 1875.8 258.7 1862.9 258.7C1850 258.7 1850 278.7 1862.9 278.7Z" fill="white" fill-opacity="0.2"/>
<path d="M2005.5 364C2018.4 364 2018.4 344 2005.5 344C1992.7 344 1992.7 364 2005.5 364Z" fill="white" fill-opacity="0.2"/>
<path d="M1455.5 33.5C1465.2 33.5 1465.2 18.5 1455.5 18.5C1445.9 18.5 1445.9 33.5 1455.5 33.5Z" fill="white" fill-opacity="0.2"/>
<path d="M1287.5 89.5C1297.2 89.5 1297.2 74.5 1287.5 74.5C1277.9 74.5 1277.9 89.5 1287.5 89.5Z" fill="white" fill-opacity="0.2"/>
<path d="M659.5 209.5C669.2 209.5 669.2 194.5 659.5 194.5C649.9 194.5 649.9 209.5 659.5 209.5Z" fill="white" fill-opacity="0.2"/>
<path d="M691.5 329.5C701.2 329.5 701.2 314.5 691.5 314.5C681.9 314.5 681.9 329.5 691.5 329.5Z" fill="white" fill-opacity="0.2"/>
<path d="M1027.5 73.5C1037.2 73.5 1037.2 58.5 1027.5 58.5C1017.9 58.5 1017.9 73.5 1027.5 73.5Z" fill="white" fill-opacity="0.2"/>
<path d="M1187.5 237.5C1197.2 237.5 1197.2 222.5 1187.5 222.5C1177.9 222.5 1177.9 237.5 1187.5 237.5Z" fill="white" fill-opacity="0.2"/>
<path d="M1015.5 317.5C1025.2 317.5 1025.2 302.5 1015.5 302.5C1005.9 302.5 1005.9 317.5 1015.5 317.5Z" fill="white" fill-opacity="0.2"/>
<path d="M1023.5 445.5C1033.2 445.5 1033.2 430.5 1023.5 430.5C1013.9 430.5 1013.9 445.5 1023.5 445.5Z" fill="white" fill-opacity="0.2"/>
<path d="M1259.5 581.5C1269.2 581.5 1269.2 566.5 1259.5 566.5C1249.9 566.5 1249.9 581.5 1259.5 581.5Z" fill="white" fill-opacity="0.2"/>
<path d="M1415.5 485.5C1425.2 485.5 1425.2 470.5 1415.5 470.5C1405.9 470.5 1405.9 485.5 1415.5 485.5Z" fill="white" fill-opacity="0.2"/>
<path d="M1459.5 653.5C1469.2 653.5 1469.2 638.5 1459.5 638.5C1449.9 638.5 1449.9 653.5 1459.5 653.5Z" fill="white" fill-opacity="0.2"/>
<path d="M1075.5 829.5C1085.2 829.5 1085.2 814.5 1075.5 814.5C1065.9 814.5 1065.9 829.5 1075.5 829.5Z" fill="white" fill-opacity="0.2"/>
<path d="M1111.5 677.5C1121.2 677.5 1121.2 662.5 1111.5 662.5C1101.9 662.5 1101.9 677.5 1111.5 677.5Z" fill="white" fill-opacity="0.2"/>
<path d="M883.5 652C896.4 652 896.4 632 883.5 632C870.7 632 870.7 652 883.5 652Z" fill="white" fill-opacity="0.2"/>
<path d="M671.5 661.5C681.2 661.5 681.2 646.5 671.5 646.5C661.9 646.5 661.9 661.5 671.5 661.5Z" fill="white" fill-opacity="0.2"/>
<path d="M659.5 764C672.4 764 672.4 744 659.5 744C646.7 744 646.7 764 659.5 764Z" fill="white" fill-opacity="0.2"/>
<path d="M719.5 733.5C729.2 733.5 729.2 718.5 719.5 718.5C709.9 718.5 709.9 733.5 719.5 733.5Z" fill="white" fill-opacity="0.2"/>
<path d="M339.5 613.5C349.2 613.5 349.2 598.5 339.5 598.5C329.9 598.5 329.9 613.5 339.5 613.5Z" fill="white" fill-opacity="0.2"/>
<path d="M299.5 357.5C309.2 357.5 309.2 342.5 299.5 342.5C289.9 342.5 289.9 357.5 299.5 357.5Z" fill="white" fill-opacity="0.2"/>
<path d="M143.5 281.5C153.2 281.5 153.2 266.5 143.5 266.5C133.9 266.5 133.9 281.5 143.5 281.5Z" fill="white" fill-opacity="0.2"/>
<path d="M115.5 337.5C125.2 337.5 125.2 322.5 115.5 322.5C105.9 322.5 105.9 337.5 115.5 337.5Z" fill="white" fill-opacity="0.2"/>
<path d="M411.5 481.5C421.2 481.5 421.2 466.5 411.5 466.5C401.9 466.5 401.9 481.5 411.5 481.5Z" fill="white" fill-opacity="0.2"/>
<path d="M187.5 652C200.4 652 200.4 632 187.5 632C174.7 632 174.7 652 187.5 652Z" fill="white" fill-opacity="0.2"/>
<path d="M237.5 524C250.4 524 250.4 504 237.5 504C224.7 504 224.7 524 237.5 524Z" fill="white" fill-opacity="0.2"/>
<path d="M249.5 637.3C262.4 637.3 262.4 617.3 249.5 617.3C236.7 617.3 236.7 637.3 249.5 637.3Z" fill="white" fill-opacity="0.2"/>
<path d="M587.5 181.5C597.2 181.5 597.2 166.5 587.5 166.5C577.9 166.5 577.9 181.5 587.5 181.5Z" fill="white" fill-opacity="0.2"/>
<path d="M171.5 53.5C181.2 53.5 181.2 38.5 171.5 38.5C161.9 38.5 161.9 53.5 171.5 53.5Z" fill="white" fill-opacity="0.2"/>
<path d="M231.5 153.5C241.2 153.5 241.2 138.5 231.5 138.5C221.9 138.5 221.9 153.5 231.5 153.5Z" fill="white" fill-opacity="0.2"/>
<path d="M283.5 216C296.4 216 296.4 196 283.5 196C270.7 196 270.7 216 283.5 216Z" fill="white" fill-opacity="0.2"/>
<path d="M1659.5 645.5C1669.2 645.5 1669.2 630.5 1659.5 630.5C1649.9 630.5 1649.9 645.5 1659.5 645.5Z" fill="white" fill-opacity="0.2"/>
<path d="M1815.5 509.5C1825.2 509.5 1825.2 494.5 1815.5 494.5C1805.9 494.5 1805.9 509.5 1815.5 509.5Z" fill="white" fill-opacity="0.2"/>
<path d="M1875.5 617.5C1885.2 617.5 1885.2 602.5 1875.5 602.5C1865.9 602.5 1865.9 617.5 1875.5 617.5Z" fill="white" fill-opacity="0.2"/>
<path d="M1963.5 441.5C1973.2 441.5 1973.2 426.5 1963.5 426.5C1953.9 426.5 1953.9 441.5 1963.5 441.5Z" fill="white" fill-opacity="0.2"/>
<path d="M1971.5 389.5C1981.2 389.5 1981.2 374.5 1971.5 374.5C1961.9 374.5 1961.9 389.5 1971.5 389.5Z" fill="white" fill-opacity="0.2"/>
<path d="M1887.5 329.5C1897.2 329.5 1897.2 314.5 1887.5 314.5C1877.9 314.5 1877.9 329.5 1887.5 329.5Z" fill="white" fill-opacity="0.2"/>
<path d="M1775.5 441.5C1785.2 441.5 1785.2 426.5 1775.5 426.5C1765.9 426.5 1765.9 441.5 1775.5 441.5Z" fill="white" fill-opacity="0.2"/>
<path d="M1691.5 381.5C1701.2 381.5 1701.2 366.5 1691.5 366.5C1681.9 366.5 1681.9 381.5 1691.5 381.5Z" fill="white" fill-opacity="0.2"/>
<path d="M1691.5 453.5C1701.2 453.5 1701.2 438.5 1691.5 438.5C1681.9 438.5 1681.9 453.5 1691.5 453.5Z" fill="white" fill-opacity="0.2"/>
<path d="M1815.5 353.5C1825.2 353.5 1825.2 338.5 1815.5 338.5C1805.9 338.5 1805.9 353.5 1815.5 353.5Z" fill="white" fill-opacity="0.2"/>
<path d="M1487.5 833.5C1497.2 833.5 1497.2 818.5 1487.5 818.5C1477.9 818.5 1477.9 833.5 1487.5 833.5Z" fill="white" fill-opacity="0.2"/>
<path d="M1783.5 1017.5C1793.2 1017.5 1793.2 1002.5 1783.5 1002.5C1773.9 1002.5 1773.9 1017.5 1783.5 1017.5Z" fill="white" fill-opacity="0.2"/>
<path d="M1475.5 973.5C1485.2 973.5 1485.2 958.5 1475.5 958.5C1465.9 958.5 1465.9 973.5 1475.5 973.5Z" fill="white" fill-opacity="0.2"/>
<path d="M1443.5 1096C1456.4 1096 1456.4 1076 1443.5 1076C1430.7 1076 1430.7 1096 1443.5 1096Z" fill="white" fill-opacity="0.2"/>
<path d="M1403.5 1005.5C1413.2 1005.5 1413.2 990.5 1403.5 990.5C1393.9 990.5 1393.9 1005.5 1403.5 1005.5Z" fill="white" fill-opacity="0.2"/>
<path d="M1263.5 909.5C1273.2 909.5 1273.2 894.5 1263.5 894.5C1253.9 894.5 1253.9 909.5 1263.5 909.5Z" fill="white" fill-opacity="0.2"/>
<path d="M1171.5 1061.5C1181.2 1061.5 1181.2 1046.5 1171.5 1046.5C1161.9 1046.5 1161.9 1061.5 1171.5 1061.5Z" fill="white" fill-opacity="0.2"/>
<path d="M1067.5 1261.5C1077.2 1261.5 1077.2 1246.5 1067.5 1246.5C1057.9 1246.5 1057.9 1261.5 1067.5 1261.5Z" fill="white" fill-opacity="0.2"/>
<path d="M619.5 963C625.9 963 625.9 953 619.5 953C613.1 953 613.1 963 619.5 963Z" fill="white" fill-opacity="0.2"/>
<path d="M891.5 539C897.9 539 897.9 529 891.5 529C885.1 529 885.1 539 891.5 539Z" fill="white" fill-opacity="0.2"/>
<path d="M1047.5 451C1053.9 451 1053.9 441 1047.5 441C1041.1 441 1041.1 451 1047.5 451Z" fill="white" fill-opacity="0.2"/>
<path d="M1479.5 599C1485.9 599 1485.9 589 1479.5 589C1473.1 589 1473.1 599 1479.5 599Z" fill="white" fill-opacity="0.2"/>
<path d="M1579.5 311C1585.9 311 1585.9 301 1579.5 301C1573.1 301 1573.1 311 1579.5 311Z" fill="white" fill-opacity="0.2"/>
<path d="M1571.5 255C1577.9 255 1577.9 245 1571.5 245C1565.1 245 1565.1 255 1571.5 255Z" fill="white" fill-opacity="0.2"/>
<path d="M1159.5 211C1165.9 211 1165.9 201 1159.5 201C1153.1 201 1153.1 211 1159.5 211Z" fill="white" fill-opacity="0.2"/>
<path d="M903.5 183C909.9 183 909.9 173 903.5 173C897.1 173 897.1 183 903.5 183Z" fill="white" fill-opacity="0.2"/>
<path d="M788 334.5C785.3 337.2 782.7 339.8 780 342.5C778.1 344.4 778.1 347.7 780 349.6C781.9 351.5 785.2 351.5 787.1 349.6C789.8 346.9 792.4 344.3 795.1 341.6C797 339.7 797 336.4 795.1 334.5C793.2 332.5 789.9 332.5 788 334.5Z" fill="white" fill-opacity="0.2"/>
<path d="M447.5 575C453.9 575 453.9 565 447.5 565C441.1 565 441.1 575 447.5 575Z" fill="white" fill-opacity="0.2"/>
<path d="M539.5 1107C545.9 1107 545.9 1097 539.5 1097C533.1 1097 533.1 1107 539.5 1107Z" fill="white" fill-opacity="0.2"/>
<path d="M1003.5 1243C1009.9 1243 1009.9 1233 1003.5 1233C997.1 1233 997.1 1243 1003.5 1243Z" fill="white" fill-opacity="0.2"/>
<path d="M1007.5 1243C1013.9 1243 1013.9 1233 1007.5 1233C1001.1 1233 1001.1 1243 1007.5 1243Z" fill="white" fill-opacity="0.2"/>
<path d="M1087.5 1511C1093.9 1511 1093.9 1501 1087.5 1501C1081.1 1501 1081.1 1511 1087.5 1511Z" fill="white" fill-opacity="0.2"/>
<path d="M1355.5 1511C1361.9 1511 1361.9 1501 1355.5 1501C1349.1 1501 1349.1 1511 1355.5 1511Z" fill="white" fill-opacity="0.2"/>
<path d="M1439.5 1651C1445.9 1651 1445.9 1641 1439.5 1641C1433.1 1641 1433.1 1651 1439.5 1651Z" fill="white" fill-opacity="0.2"/>
<path d="M1727.5 1655C1733.9 1655 1733.9 1645 1727.5 1645C1721.1 1645 1721.1 1655 1727.5 1655Z" fill="white" fill-opacity="0.2"/>
<path d="M1823.5 1675C1829.9 1675 1829.9 1665 1823.5 1665C1817.1 1665 1817.1 1675 1823.5 1675Z" fill="white" fill-opacity="0.2"/>
<path d="M2191.5 1275C2197.9 1275 2197.9 1265 2191.5 1265C2185.1 1265 2185.1 1275 2191.5 1275Z" fill="white" fill-opacity="0.2"/>
<path d="M2175.5 1191C2181.9 1191 2181.9 1181 2175.5 1181C2169.1 1181 2169.1 1191 2175.5 1191Z" fill="white" fill-opacity="0.2"/>
<path d="M1783.5 763C1789.9 763 1789.9 753 1783.5 753C1777.1 753 1777.1 763 1783.5 763Z" fill="white" fill-opacity="0.2"/>
<path d="M1675.5 807C1681.9 807 1681.9 797 1675.5 797C1669.1 797 1669.1 807 1675.5 807Z" fill="white" fill-opacity="0.2"/>
<path d="M1643.5 851C1649.9 851 1649.9 841 1643.5 841C1637.1 841 1637.1 851 1643.5 851Z" fill="white" fill-opacity="0.2"/>
<path d="M1667.5 975C1673.9 975 1673.9 965 1667.5 965C1661.1 965 1661.1 975 1667.5 975Z" fill="white" fill-opacity="0.2"/>
<path d="M1367.5 671C1373.9 671 1373.9 661 1367.5 661C1361.1 661 1361.1 671 1367.5 671Z" fill="white" fill-opacity="0.2"/>
<path d="M1295.5 639C1301.9 639 1301.9 629 1295.5 629C1289.1 629 1289.1 639 1295.5 639Z" fill="white" fill-opacity="0.2"/>
<path d="M1195.5 709C1194.2 709 1192.8 709 1191.5 709C1188.9 709 1186.4 711.3 1186.5 714C1186.6 716.7 1188.7 719 1191.5 719C1192.8 719 1194.2 719 1195.5 719C1198.1 719 1200.6 716.7 1200.5 714C1200.4 711.3 1198.4 709 1195.5 709Z" fill="white" fill-opacity="0.2"/>
<path d="M883.5 675C889.9 675 889.9 665 883.5 665C877.1 665 877.1 675 883.5 675Z" fill="white" fill-opacity="0.2"/>
<path d="M791.5 759C797.9 759 797.9 749 791.5 749C785.1 749 785.1 759 791.5 759Z" fill="white" fill-opacity="0.2"/>
<path d="M639.5 871C645.9 871 645.9 861 639.5 861C633.1 861 633.1 871 639.5 871Z" fill="white" fill-opacity="0.2"/>
<path d="M515.5 975C521.9 975 521.9 965 515.5 965C509.1 965 509.1 975 515.5 975Z" fill="white" fill-opacity="0.2"/>
<path d="M435.5 871C441.9 871 441.9 861 435.5 861C429.1 861 429.1 871 435.5 871Z" fill="white" fill-opacity="0.2"/>
<path d="M439.5 799C445.9 799 445.9 789 439.5 789C433.1 789 433.1 799 439.5 799Z" fill="white" fill-opacity="0.2"/>
<path d="M278.5 902C278.5 904.7 278.5 907.3 278.5 910C278.5 912.6 280.8 915.1 283.5 915C286.2 914.9 288.5 912.8 288.5 910C288.5 907.3 288.5 904.7 288.5 902C288.5 899.4 286.2 896.9 283.5 897C280.8 897.1 278.5 899.2 278.5 902Z" fill="white" fill-opacity="0.2"/>
<path d="M247.5 1071C253.9 1071 253.9 1061 247.5 1061C241.1 1061 241.1 1071 247.5 1071Z" fill="white" fill-opacity="0.2"/>
<path d="M123.5 1095C129.9 1095 129.9 1085 123.5 1085C117.1 1085 117.1 1095 123.5 1095Z" fill="white" fill-opacity="0.2"/>
<path d="M163.5 1003C169.9 1003 169.9 993 163.5 993C157.1 993 157.1 1003 163.5 1003Z" fill="white" fill-opacity="0.2"/>
<path d="M187.5 991C193.9 991 193.9 981 187.5 981C181.1 981 181.1 991 187.5 991Z" fill="white" fill-opacity="0.2"/>
<path d="M455.5 1167C461.9 1167 461.9 1157 455.5 1157C449.1 1157 449.1 1167 455.5 1167Z" fill="white" fill-opacity="0.2"/>
<path d="M363.5 1279C369.9 1279 369.9 1269 363.5 1269C357.1 1269 357.1 1279 363.5 1279Z" fill="white" fill-opacity="0.2"/>
<path d="M315.5 1363C321.9 1363 321.9 1353 315.5 1353C309.1 1353 309.1 1363 315.5 1363Z" fill="white" fill-opacity="0.2"/>
<path d="M391.5 1327C397.9 1327 397.9 1317 391.5 1317C385.1 1317 385.1 1327 391.5 1327Z" fill="white" fill-opacity="0.2"/>
<path d="M515.5 1284C528.4 1284 528.4 1264 515.5 1264C502.7 1264 502.7 1284 515.5 1284Z" fill="white" fill-opacity="0.2"/>
<path d="M696.7 1192C709.6 1192 709.6 1172 696.7 1172C683.8 1172 683.8 1192 696.7 1192Z" fill="white" fill-opacity="0.2"/>
<path d="M675.5 1412C688.4 1412 688.4 1392 675.5 1392C662.7 1392 662.7 1412 675.5 1412Z" fill="white" fill-opacity="0.2"/>
<path d="M559.5 1412C572.4 1412 572.4 1392 559.5 1392C546.7 1392 546.7 1412 559.5 1412Z" fill="white" fill-opacity="0.2"/>
<path d="M648.7 1488C661.6 1488 661.6 1468 648.7 1468C635.8 1468 635.8 1488 648.7 1488Z" fill="white" fill-opacity="0.2"/>
<path d="M731.5 1560C744.4 1560 744.4 1540 731.5 1540C718.7 1540 718.7 1560 731.5 1560Z" fill="white" fill-opacity="0.2"/>
<path d="M835.5 1580C848.4 1580 848.4 1560 835.5 1560C822.7 1560 822.7 1580 835.5 1580Z" fill="white" fill-opacity="0.2"/>
<path d="M755.5 1700C768.4 1700 768.4 1680 755.5 1680C742.7 1680 742.7 1700 755.5 1700Z" fill="white" fill-opacity="0.2"/>
<path d="M723.5 1648C736.4 1648 736.4 1628 723.5 1628C710.7 1628 710.7 1648 723.5 1648Z" fill="white" fill-opacity="0.2"/>
<path d="M835.5 1419C841.9 1419 841.9 1409 835.5 1409C829.1 1409 829.1 1419 835.5 1419Z" fill="white" fill-opacity="0.2"/>
<path d="M931.5 1099C937.9 1099 937.9 1089 931.5 1089C925.1 1089 925.1 1099 931.5 1099Z" fill="white" fill-opacity="0.2"/>
<path d="M1007.5 995C1013.9 995 1013.9 985 1007.5 985C1001.1 985 1001.1 995 1007.5 995Z" fill="white" fill-opacity="0.2"/>
<path d="M951.5 983C957.9 983 957.9 973 951.5 973C945.1 973 945.1 983 951.5 983Z" fill="white" fill-opacity="0.2"/>
<path d="M931.5 1035C937.9 1035 937.9 1025 931.5 1025C925.1 1025 925.1 1035 931.5 1035Z" fill="white" fill-opacity="0.2"/>
<path d="M1015.5 1483C1021.9 1483 1021.9 1473 1015.5 1473C1009.1 1473 1009.1 1483 1015.5 1483Z" fill="white" fill-opacity="0.2"/>
<path d="M963.5 1551C969.9 1551 969.9 1541 963.5 1541C957.1 1541 957.1 1551 963.5 1551Z" fill="white" fill-opacity="0.2"/>
<path d="M755.5 1695C761.9 1695 761.9 1685 755.5 1685C749.1 1685 749.1 1695 755.5 1695Z" fill="white" fill-opacity="0.2"/>
<path d="M823.5 1747C829.9 1747 829.9 1737 823.5 1737C817.1 1737 817.1 1747 823.5 1747Z" fill="white" fill-opacity="0.2"/>
<path d="M855.5 1543C861.9 1543 861.9 1533 855.5 1533C849.1 1533 849.1 1543 855.5 1543Z" fill="white" fill-opacity="0.2"/>
<path d="M675.5 1555C681.9 1555 681.9 1545 675.5 1545C669.1 1545 669.1 1555 675.5 1555Z" fill="white" fill-opacity="0.2"/>
<path d="M831.5 1539C837.9 1539 837.9 1529 831.5 1529C825.1 1529 825.1 1539 831.5 1539Z" fill="white" fill-opacity="0.2"/>
<path d="M1139.5 1603C1145.9 1603 1145.9 1593 1139.5 1593C1133.1 1593 1133.1 1603 1139.5 1603Z" fill="white" fill-opacity="0.2"/>
<path d="M875.5 1609.5C885.2 1609.5 885.2 1594.5 875.5 1594.5C865.9 1594.5 865.9 1609.5 875.5 1609.5Z" fill="white" fill-opacity="0.2"/>
<path d="M819.5 1693.5C829.2 1693.5 829.2 1678.5 819.5 1678.5C809.9 1678.5 809.9 1693.5 819.5 1693.5Z" fill="white" fill-opacity="0.2"/>
<path d="M1091.5 1701.5C1101.2 1701.5 1101.2 1686.5 1091.5 1686.5C1081.9 1686.5 1081.9 1701.5 1091.5 1701.5Z" fill="white" fill-opacity="0.2"/>
<path d="M1319.5 1645.5C1329.2 1645.5 1329.2 1630.5 1319.5 1630.5C1309.9 1630.5 1309.9 1645.5 1319.5 1645.5Z" fill="white" fill-opacity="0.2"/>
<path d="M1475.5 1521.5C1485.2 1521.5 1485.2 1506.5 1475.5 1506.5C1465.9 1506.5 1465.9 1521.5 1475.5 1521.5Z" fill="white" fill-opacity="0.2"/>
<path d="M1643.5 1509.5C1653.2 1509.5 1653.2 1494.5 1643.5 1494.5C1633.9 1494.5 1633.9 1509.5 1643.5 1509.5Z" fill="white" fill-opacity="0.2"/>
<path d="M1627.5 1405.5C1637.2 1405.5 1637.2 1390.5 1627.5 1390.5C1617.9 1390.5 1617.9 1405.5 1627.5 1405.5Z" fill="white" fill-opacity="0.2"/>
<path d="M1539.5 1425.5C1549.2 1425.5 1549.2 1410.5 1539.5 1410.5C1529.9 1410.5 1529.9 1425.5 1539.5 1425.5Z" fill="white" fill-opacity="0.2"/>
<path d="M1411.5 1461.5C1421.2 1461.5 1421.2 1446.5 1411.5 1446.5C1401.9 1446.5 1401.9 1461.5 1411.5 1461.5Z" fill="white" fill-opacity="0.2"/>
<path d="M1307.5 1353.5C1317.2 1353.5 1317.2 1338.5 1307.5 1338.5C1297.9 1338.5 1297.9 1353.5 1307.5 1353.5Z" fill="white" fill-opacity="0.2"/>
<path d="M1443.5 1316C1456.4 1316 1456.4 1296 1443.5 1296C1430.7 1296 1430.7 1316 1443.5 1316Z" fill="white" fill-opacity="0.2"/>
<path d="M1563.5 1276C1576.4 1276 1576.4 1256 1563.5 1256C1550.7 1256 1550.7 1276 1563.5 1276Z" fill="white" fill-opacity="0.2"/>
<path d="M1619.5 1265.5C1629.2 1265.5 1629.2 1250.5 1619.5 1250.5C1609.9 1250.5 1609.9 1265.5 1619.5 1265.5Z" fill="white" fill-opacity="0.2"/>
<path d="M1939.5 1321.5C1940.8 1321.5 1942.2 1321.5 1943.5 1321.5C1945.4 1321.5 1947.4 1320.7 1948.8 1319.3C1950.1 1318 1951.1 1315.9 1951 1314C1950.8 1309.9 1947.7 1306.5 1943.5 1306.5C1942.2 1306.5 1940.8 1306.5 1939.5 1306.5C1937.6 1306.5 1935.6 1307.3 1934.2 1308.7C1932.9 1310 1931.9 1312.1 1932 1314C1932.2 1318.1 1935.3 1321.5 1939.5 1321.5Z" fill="white" fill-opacity="0.2"/>
<path d="M1951.5 1457.5C1961.2 1457.5 1961.2 1442.5 1951.5 1442.5C1941.9 1442.5 1941.9 1457.5 1951.5 1457.5Z" fill="white" fill-opacity="0.2"/>
<path d="M2051.5 1489.5C2061.2 1489.5 2061.2 1474.5 2051.5 1474.5C2041.9 1474.5 2041.9 1489.5 2051.5 1489.5Z" fill="white" fill-opacity="0.2"/>
<path d="M523.5 1517.5C533.2 1517.5 533.2 1502.5 523.5 1502.5C513.9 1502.5 513.9 1517.5 523.5 1517.5Z" fill="white" fill-opacity="0.2"/>
<path d="M451.5 1533.5C461.2 1533.5 461.2 1518.5 451.5 1518.5C441.9 1518.5 441.9 1533.5 451.5 1533.5Z" fill="white" fill-opacity="0.2"/>
<path d="M335.5 1453.5C345.2 1453.5 345.2 1438.5 335.5 1438.5C325.9 1438.5 325.9 1453.5 335.5 1453.5Z" fill="white" fill-opacity="0.2"/>
<path d="M195.5 1505.5C205.2 1505.5 205.2 1490.5 195.5 1490.5C185.9 1490.5 185.9 1505.5 195.5 1505.5Z" fill="white" fill-opacity="0.2"/>
<path d="M1679.2 1690.2L1604.6 1625.2L1606.6 1622.9L1679.9 1686.9L1779.8 1656.8L1794.5 1554.3L1714.7 1503.3L1716.4 1500.7L1797.7 1552.8L1782.5 1659.2L1781.5 1659.4L1679.2 1690.2Z" fill="white" fill-opacity="0.2"/>
<path d="M1964 1739.6L1860 1718.5L1859.7 1718.3L1780.2 1659.2L1782 1656.8L1861.2 1715.6L1963.1 1736.4L2042.4 1657L2141.2 1526.6L2051.5 1483.6L1944.1 1527.4L1943 1524.6L2051.6 1480.4L2145.9 1525.4L2044.6 1659.1L1964 1739.6Z" fill="white" fill-opacity="0.2"/>
<path d="M1605.6 1634.1C1618.5 1634.1 1618.5 1614.1 1605.6 1614.1C1592.7 1614.1 1592.7 1634.1 1605.6 1634.1Z" fill="white" fill-opacity="0.2"/>
<path d="M1719.5 1512C1732.4 1512 1732.4 1492 1719.5 1492C1706.7 1492 1706.7 1512 1719.5 1512Z" fill="white" fill-opacity="0.2"/>
<path d="M1679.5 1698.6C1692.4 1698.6 1692.4 1678.6 1679.5 1678.6C1666.7 1678.6 1666.7 1698.6 1679.5 1698.6Z" fill="white" fill-opacity="0.2"/>
<path d="M1781.1 1668C1794 1668 1794 1648 1781.1 1648C1768.2 1648 1768.2 1668 1781.1 1668Z" fill="white" fill-opacity="0.2"/>
<path d="M1796.1 1563.6C1809 1563.6 1809 1543.6 1796.1 1543.6C1783.2 1543.6 1783.2 1563.6 1796.1 1563.6Z" fill="white" fill-opacity="0.2"/>
<path d="M1858.5 1727C1871.4 1727 1871.4 1707 1858.5 1707C1845.7 1707 1845.7 1727 1858.5 1727Z" fill="white" fill-opacity="0.2"/>
<path d="M1943.5 1536C1956.4 1536 1956.4 1516 1943.5 1516C1930.7 1516 1930.7 1536 1943.5 1536Z" fill="white" fill-opacity="0.2"/>
<path d="M255 1572.4L192.2 1497.1L336.6 1443.5L374.3 1523.1L255 1572.4ZM198.9 1498.9L256.1 1567.6L368.8 1521L334.5 1448.6L198.9 1498.9Z" fill="white" fill-opacity="0.2"/>
<path d="M194 1499.3L145.5 1442.7V1346H149.5V1441.3L197.1 1496.7L194 1499.3Z" fill="white" fill-opacity="0.2"/>
<path d="M337.4 1446.8L333.7 1445.2L389.3 1322.1L361.8 1275L365.3 1273L393.8 1321.9L337.4 1446.8Z" fill="white" fill-opacity="0.2"/>
<path d="M491.1 1626.3L370.3 1523.5L372.8 1520.5L492 1621.8L539 1608.1L540.1 1611.9L491.1 1626.3Z" fill="white" fill-opacity="0.2"/>
<path d="M189.5 1710.2L185.6 1709.8L193.6 1645.2L254 1568.8L257.1 1571.2L197.5 1646.8L189.5 1710.2Z" fill="white" fill-opacity="0.2"/>
<path d="M539.5 1620C552.4 1620 552.4 1600 539.5 1600C526.7 1600 526.7 1620 539.5 1620Z" fill="white" fill-opacity="0.2"/>
<path d="M491.5 1634.1C504.4 1634.1 504.4 1614.1 491.5 1614.1C478.7 1614.1 478.7 1634.1 491.5 1634.1Z" fill="white" fill-opacity="0.2"/>
<path d="M187.5 1720C200.4 1720 200.4 1700 187.5 1700C174.7 1700 174.7 1720 187.5 1720Z" fill="white" fill-opacity="0.2"/>
<path d="M195.5 1656C208.4 1656 208.4 1636 195.5 1636C182.7 1636 182.7 1656 195.5 1656Z" fill="white" fill-opacity="0.2"/>
<path d="M147.5 1356C160.4 1356 160.4 1336 147.5 1336C134.7 1336 134.7 1356 147.5 1356Z" fill="white" fill-opacity="0.2"/>
<path d="M147.5 1456C160.4 1456 160.4 1436 147.5 1436C134.7 1436 134.7 1456 147.5 1456Z" fill="white" fill-opacity="0.2"/>
<path d="M391.5 1332C404.4 1332 404.4 1312 391.5 1312C378.7 1312 378.7 1332 391.5 1332Z" fill="white" fill-opacity="0.2"/>
<path d="M363.5 1284C376.4 1284 376.4 1264 363.5 1264C350.7 1264 350.7 1284 363.5 1284Z" fill="white" fill-opacity="0.2"/>
<path d="M1643.5 848C1642.8 848 1642.2 847.7 1641.8 847.1C1641.4 846.4 1641.4 845.5 1641.9 844.8L1673.9 800.8C1674.3 800.3 1675 799.9 1675.6 800L1827.6 808C1828.6 808.1 1829.4 808.8 1829.5 809.9C1829.6 811 1828.9 811.8 1827.9 812L1643.9 848C1643.8 848 1643.7 848 1643.5 848ZM1676.5 804.1L1648.1 843.1L1811.2 811.2L1676.5 804.1Z" fill="white" fill-opacity="0.2"/>
<path d="M1755.5 1074H1751.5V964.7L1752.7 964.2L1912 893.4L1826.2 811.4L1828.9 808.6L1919.1 894.6L1755.5 967.3V1074Z" fill="white" fill-opacity="0.2"/>
<path d="M2097.8 1307L2041.1 1213.8L2042 1212.7L2109 1132L1914 895.3L1917.1 892.7L2114.1 1132L2113.1 1133.3L2046 1214.2L2101.3 1305L2097.8 1307Z" fill="white" fill-opacity="0.2"/>
<path d="M1753.5 1084C1766.4 1084 1766.4 1064 1753.5 1064C1740.7 1064 1740.7 1084 1753.5 1084Z" fill="white" fill-opacity="0.2"/>
<path d="M1753.5 976C1766.4 976 1766.4 956 1753.5 956C1740.7 956 1740.7 976 1753.5 976Z" fill="white" fill-opacity="0.2"/>
<path d="M2111.5 1142C2124.4 1142 2124.4 1122 2111.5 1122C2098.7 1122 2098.7 1142 2111.5 1142Z" fill="white" fill-opacity="0.2"/>
<path d="M2043.5 1224C2056.4 1224 2056.4 1204 2043.5 1204C2030.7 1204 2030.7 1224 2043.5 1224Z" fill="white" fill-opacity="0.2"/>
<path d="M2099.5 1316C2112.4 1316 2112.4 1296 2099.5 1296C2086.7 1296 2086.7 1316 2099.5 1316Z" fill="white" fill-opacity="0.2"/>
<path d="M1643.5 856C1656.4 856 1656.4 836 1643.5 836C1630.7 836 1630.7 856 1643.5 856Z" fill="white" fill-opacity="0.2"/>
<path d="M1675.5 812C1688.4 812 1688.4 792 1675.5 792C1662.7 792 1662.7 812 1675.5 812Z" fill="white" fill-opacity="0.2"/>
<path d="M1827.5 820C1840.4 820 1840.4 800 1827.5 800C1814.7 800 1814.7 820 1827.5 820Z" fill="white" fill-opacity="0.2"/>
<path d="M903.6 180L903.5 176L1067.5 172.2L906.7 91.8L908.4 88.2L1083.6 175.8L903.6 180Z" fill="white" fill-opacity="0.2"/>
<path d="M1785.4 324L1642.8 311.9L1539.2 232.2L1334.7 301L1242.5 158.1L1074.3 176.1L1025.7 66.8L1029.4 65.2L1076.8 171.9L1244.6 153.9L1245.2 154.9L1336.4 296.2L1539.9 227.8L1644.3 308.1L1785.7 320L1785.4 324Z" fill="white" fill-opacity="0.2"/>
<path d="M1242.6 170.1C1255.5 170.1 1255.5 150.1 1242.6 150.1C1229.8 150.1 1229.7 170.1 1242.6 170.1Z" fill="white" fill-opacity="0.2"/>
<path d="M1075.5 184C1088.4 184 1088.4 164 1075.5 164C1062.7 164 1062.7 184 1075.5 184Z" fill="white" fill-opacity="0.2"/>
<path d="M1331.5 308C1344.4 308 1344.4 288 1331.5 288C1318.7 288 1318.7 308 1331.5 308Z" fill="white" fill-opacity="0.2"/>
<path d="M1543.5 240C1556.4 240 1556.4 220 1543.5 220C1530.7 220 1530.7 240 1543.5 240Z" fill="white" fill-opacity="0.2"/>
<path d="M1641.5 316C1654.4 316 1654.4 296 1641.5 296C1628.7 296 1628.7 316 1641.5 316Z" fill="white" fill-opacity="0.2"/>
<path d="M1785.5 332C1798.4 332 1798.4 312 1785.5 312C1772.7 312 1772.7 332 1785.5 332Z" fill="white" fill-opacity="0.2"/>
</svg>
