<svg width="256" height="256" viewBox="0 0 256 256" fill="none" xmlns="http://www.w3.org/2000/svg">
<path d="M240.635 115.999C240.635 106.588 236.388 97.769 229.151 91.8989C229.466 90.3962 229.622 88.9523 229.622 87.5315C229.622 75.8093 220.954 66.0736 209.692 64.3968C209.951 63.0503 210.074 61.7293 210.074 60.4135C210.074 47.9335 200.238 37.737 187.917 37.0893C187.715 37.056 187.51 37.0279 187.297 37.0279C187.195 37.0279 187.095 37.0407 186.99 37.0432C186.888 37.0407 186.788 37.0279 186.683 37.0279C185.51 37.0279 184.33 37.1328 183.083 37.3504C180.918 25.8688 170.916 17.3184 158.925 17.3184C145.329 17.3184 134.267 28.3802 134.267 41.9789V210.729C134.267 227.94 148.267 241.938 165.476 241.938C176.893 241.938 187.256 235.761 192.73 225.948C193.956 226.214 195.133 226.378 196.316 226.455C203.748 226.929 210.985 224.494 216.607 219.561C222.228 214.628 225.592 207.8 226.079 200.335C226.281 197.225 225.933 194.104 225.047 191.022C234.765 184.133 240.476 173.225 240.476 161.272C240.476 152.607 237.355 144.287 231.657 137.659C237.391 131.853 240.635 124.086 240.635 115.999ZM232.801 161.277C232.801 170.197 228.751 178.378 221.806 183.854C216.666 175.672 207.547 170.447 197.673 170.447C195.553 170.447 193.833 172.168 193.833 174.287C193.833 176.407 195.553 178.127 197.673 178.127C206.226 178.127 214.016 183.485 217.083 191.46C218.132 194.245 218.598 197.064 218.417 199.841C218.063 205.258 215.624 210.212 211.543 213.791C207.462 217.372 202.222 219.151 196.818 218.793C195.297 218.693 193.725 218.365 191.869 217.764C189.975 217.144 187.924 218.081 187.144 219.914C183.444 228.629 174.938 234.261 165.473 234.261C152.499 234.261 141.944 223.706 141.944 210.732V41.9815C141.944 32.6195 149.56 25.001 158.922 25.001C167.621 25.001 174.779 31.5597 175.711 40.1255C168.668 44.16 163.904 51.7351 163.904 60.416C163.904 62.5383 165.624 64.256 167.744 64.256C169.864 64.256 171.584 62.5383 171.584 60.416C171.584 51.8579 178.468 44.8896 186.985 44.7232C195.502 44.8896 202.386 51.8579 202.386 60.4135C202.386 62.0058 202.086 63.6544 201.467 65.4592C201.321 65.8842 201.252 66.3296 201.259 66.7776C201.262 66.8826 201.267 66.9799 201.277 67.072C201.262 67.1258 201.252 67.1616 201.252 67.1616C200.95 68.352 201.236 69.6167 202.022 70.5613C202.808 71.5059 203.981 72.0179 205.225 71.9386C205.491 71.9207 205.757 71.8874 206.228 71.8208C214.889 71.8208 221.937 78.8685 221.937 87.529C221.937 88.9933 221.673 90.496 221.112 92.2624C220.593 93.888 221.21 95.6621 222.625 96.6144C228.856 100.81 232.632 107.697 232.901 115.154C232.901 115.164 232.899 115.174 232.899 115.185C232.899 128.061 222.423 138.54 209.546 138.54C196.669 138.54 186.191 128.061 186.191 115.185C186.191 113.062 184.471 111.345 182.351 111.345C180.232 111.345 178.511 113.062 178.511 115.185C178.511 132.298 192.433 146.22 209.546 146.22C215.25 146.22 220.58 144.645 225.178 141.949C230.093 147.3 232.801 154.143 232.801 161.277Z" fill="white"/>
<path d="M97.7382 17.321C85.7472 17.321 75.7478 25.8714 73.5846 37.353C72.3353 37.1354 71.1552 37.0304 69.9827 37.0304C69.8803 37.0304 69.7805 37.0432 69.6755 37.0458C69.5731 37.0432 69.4733 37.0304 69.3683 37.0304C69.1558 37.0304 68.951 37.0586 68.7488 37.0919C56.4275 37.7395 46.5945 47.936 46.5945 60.416C46.5945 61.7319 46.72 63.0528 46.976 64.3994C35.7145 66.0762 27.0464 75.8119 27.0464 87.5341C27.0464 88.9523 27.2025 90.3962 27.5174 91.9015C20.2803 97.7715 16.0333 106.591 16.0333 116.001C16.0333 124.088 19.2742 131.855 25.0061 137.667C19.3049 144.294 16.1843 152.614 16.1843 161.28C16.1843 173.233 21.8957 184.138 31.6134 191.03C30.7251 194.112 30.3795 197.233 30.5843 200.346C31.0707 207.808 34.432 214.636 40.0537 219.569C45.6755 224.504 52.8921 226.939 60.3443 226.463C61.5091 226.386 62.6969 226.217 63.9283 225.953C69.4016 235.768 79.7645 241.946 91.1821 241.946C108.39 241.946 122.391 227.945 122.391 210.737V41.9815C122.396 28.3827 111.334 17.321 97.7382 17.321ZM114.716 210.732C114.716 223.706 104.161 234.261 91.1872 234.261C81.7229 234.261 73.216 228.628 69.5193 219.914C68.9024 218.463 67.4893 217.574 65.984 217.574C65.5897 217.574 65.1878 217.633 64.7936 217.764C62.9401 218.365 61.3683 218.693 59.8451 218.793C54.4205 219.149 49.2006 217.37 45.1225 213.791C41.0419 210.212 38.6022 205.258 38.2489 199.841C38.0544 196.872 38.5689 193.861 39.7798 190.894C39.7977 190.851 39.7926 190.802 39.808 190.758C43.2435 182.935 50.624 178.079 59.2563 178.079C61.3785 178.079 63.0963 176.358 63.0963 174.239C63.0963 172.119 61.3785 170.399 59.2563 170.399C49.175 170.399 40.0537 175.537 34.8134 183.811C27.8989 178.335 23.8643 170.173 23.8643 161.277C23.8643 154.143 26.5779 147.3 31.488 141.952C36.0857 144.648 41.4182 146.222 47.1219 146.222C64.2355 146.222 78.1568 132.301 78.1568 115.187C78.1568 113.065 76.439 111.347 74.3168 111.347C72.1945 111.347 70.4768 113.065 70.4768 115.187C70.4768 128.064 60.0013 138.542 47.1219 138.542C34.2425 138.542 23.767 128.064 23.767 115.187C23.767 115.182 23.7645 115.177 23.7645 115.172C24.0281 107.709 27.8041 100.818 34.0377 96.617C35.4534 95.6647 36.0678 93.8931 35.5507 92.2675C34.9875 90.4986 34.7264 88.9959 34.7264 87.5315C34.7264 78.889 41.7433 71.8515 50.5856 71.8515C50.6035 71.8515 50.624 71.8515 50.6419 71.8515C50.9056 71.8874 51.1693 71.9207 51.4381 71.9386C52.6797 72.0154 53.8649 71.5008 54.6483 70.5511C55.4342 69.5987 55.7158 68.329 55.4009 67.136C55.4009 67.1335 55.3933 67.1002 55.3805 67.0567C55.3881 66.9671 55.3958 66.8851 55.3984 66.8135C55.4112 66.3527 55.3421 65.8944 55.191 65.4592C54.5715 63.6493 54.272 61.9981 54.272 60.4109C54.272 51.8554 61.1533 44.8845 69.6729 44.7207C78.1926 44.8871 85.0739 51.8554 85.0739 60.4135C85.0739 62.5357 86.7917 64.2535 88.9139 64.2535C91.0361 64.2535 92.7539 62.5357 92.7539 60.4135C92.7539 51.7325 87.9898 44.1575 80.9472 40.1229C81.879 31.5571 89.0368 24.9984 97.7357 24.9984C107.098 24.9984 114.714 32.617 114.714 41.9789L114.716 210.732Z" fill="white"/>
</svg>
