<svg width="256" height="256" viewBox="0 0 256 256" fill="none" xmlns="http://www.w3.org/2000/svg">
<path d="M193.885 21.5701C194.542 20.9137 195.432 20.545 196.36 20.545H218.309L218.333 20.5462C218.467 20.5527 218.601 20.5662 218.734 20.5869L218.773 20.593L219.056 20.6603L219.403 20.7692L219.688 20.8986L219.696 20.9028C219.802 20.9531 219.904 21.0091 220.003 21.0706L220.017 21.0792L220.03 21.0882C220.125 21.1517 220.217 21.2199 220.306 21.2924L220.314 21.2979L220.315 21.2987C220.342 21.3165 220.407 21.3601 220.479 21.4225L220.526 21.4638L220.588 21.5332C220.671 21.6175 220.751 21.706 220.825 21.7984L220.84 21.8157L220.845 21.8219L220.876 21.8576C220.909 21.8963 220.951 21.9474 220.999 22.0137C221.07 22.1139 221.15 22.2392 221.214 22.3677C221.217 22.3736 221.22 22.3787 221.224 22.3861L221.24 22.4151L221.249 22.4319C221.269 22.468 221.299 22.5239 221.331 22.5921C221.39 22.7187 221.438 22.8683 221.454 22.919L221.459 22.9338C221.473 22.9766 221.484 23.0151 221.492 23.0426L221.502 23.0801L221.509 23.1063L221.511 23.114C221.592 23.3182 221.608 23.5197 221.61 23.6275C221.624 23.7234 221.633 23.8197 221.639 23.9163L221.64 23.9431V45.815C221.64 46.7432 221.271 47.6335 220.615 48.2899C219.959 48.9462 219.068 49.315 218.14 49.315C217.212 49.315 216.322 48.9462 215.665 48.2899C215.009 47.6335 214.64 46.7432 214.64 45.815V33.1221L155.272 98.7854C154.704 99.4144 153.926 99.8158 153.084 99.915C152.242 100.014 151.393 99.8043 150.694 99.3244L102.964 66.4915L54.7869 119.011C54.4594 119.368 54.0613 119.653 53.6179 119.848C53.1745 120.044 52.6954 120.145 52.2109 120.145H52.2073C51.5295 120.143 50.8668 119.945 50.2998 119.573C49.7327 119.202 49.2856 118.674 49.0128 118.054C48.74 117.433 48.6533 116.747 48.763 116.078C48.8728 115.409 49.1745 114.787 49.6313 114.286L99.8629 59.5192C100.433 58.897 101.209 58.502 102.048 58.4068C102.887 58.3116 103.732 58.5227 104.427 59.0012L152.135 91.8298L210.248 27.545H196.36C195.432 27.545 194.542 27.1762 193.885 26.5199C193.229 25.8635 192.86 24.9732 192.86 24.045C192.86 23.1167 193.229 22.2265 193.885 21.5701Z" fill="white"/>
<path fill-rule="evenodd" clip-rule="evenodd" d="M15.2201 36.7901C15.8765 36.1337 16.7667 35.765 17.695 35.765C18.6233 35.765 19.5135 36.1337 20.1699 36.7901C20.8263 37.4465 21.195 38.3367 21.195 39.265V228.47H34.46V173.215C34.46 172.287 34.8288 171.396 35.4851 170.74C36.1415 170.084 37.0317 169.715 37.96 169.715H66.46C67.3883 169.715 68.2785 170.084 68.9349 170.74C69.5913 171.396 69.96 172.287 69.96 173.215V228.47H84.69V116.645C84.69 115.717 85.0588 114.826 85.7151 114.17C86.3715 113.514 87.2617 113.145 88.19 113.145H116.69C117.618 113.145 118.509 113.514 119.165 114.17C119.821 114.826 120.19 115.717 120.19 116.645V228.5H134.92V141.5C134.92 140.572 135.289 139.681 135.945 139.025C136.602 138.369 137.492 138 138.42 138H166.92C167.848 138 168.739 138.369 169.395 139.025C170.051 139.681 170.42 140.572 170.42 141.5V228.47H185.155V82.155C185.155 81.2267 185.524 80.3365 186.18 79.6801C186.837 79.0237 187.727 78.655 188.655 78.655H217.155C218.083 78.655 218.973 79.0237 219.63 79.6801C220.286 80.3365 220.655 81.2267 220.655 82.155V228.47H238.305C239.233 228.47 240.124 228.839 240.78 229.495C241.436 230.152 241.805 231.042 241.805 231.97C241.805 232.898 241.436 233.788 240.78 234.445C240.124 235.101 239.233 235.47 238.305 235.47H17.695C16.7667 235.47 15.8765 235.101 15.2201 234.445C14.5638 233.788 14.195 232.898 14.195 231.97V39.265C14.195 38.3367 14.5638 37.4465 15.2201 36.7901ZM192.16 85.655V228.47H213.66V85.655H192.16ZM91.695 120.145V228.47H113.195V120.145H91.695ZM141.93 145V228.471L163.43 228.499V145H141.93ZM41.465 176.715V228.47H62.965V176.715H41.465Z" fill="white"/>
</svg>
